<svg xmlns="http://www.w3.org/2000/svg" viewBox="0 0 46.97 10.09"><defs><style>.cls-1{fill:#231815;}.cls-2{fill:#94cbc1;}</style></defs><title>资源 6</title><g id="图层_2" data-name="图层 2"><g id="图层_1-2" data-name="图层 1"><path class="cls-1" d="M8.12,10s0,.05-.09.05H7a.42.42,0,0,1-.35-.22L4.06,6,1.46,9.85c-.12.15-.21.22-.34.22H.1c-.07,0-.1,0-.1-.05s0-.07,3.36-5C0,.17,0,.13,0,.1S0,0,.1,0h1a.4.4,0,0,1,.34.23L4.06,4.1,6.67.27A.41.41,0,0,1,7,0H8c.07,0,.09,0,.09.06s0,.07-3.34,5C8.11,10,8.12,10,8.12,10Z"/><path class="cls-1" d="M10.15,9.86V.25c0-.14.08-.19.22-.19H17a.19.19,0,0,1,.21.21V1c0,.16-.07.25-.22.25H11.33V2.9h4.49a.22.22,0,0,1,.21.24v.7a.22.22,0,0,1-.21.24H11.33V5.81h4.49A.21.21,0,0,1,16,6v.71a.23.23,0,0,1-.21.24H11.33V8.92h5.61a.24.24,0,0,1,.26.24v.69a.22.22,0,0,1-.24.24H10.37C10.22,10.09,10.15,10,10.15,9.86Z"/><path class="cls-1" d="M27.57,0c.21,0,.27.1.27.23l-.07,9.61c0,.14-.09.21-.26.21h-.89L20.4,1.68V6.89l2.45,0a.2.2,0,0,1,.21.22v.71a.22.22,0,0,1-.22.24H19.45c-.14,0-.21-.07-.21-.18V.22A.22.22,0,0,1,19.47,0h1a.25.25,0,0,1,.22.11l6,8L26.67.25A.22.22,0,0,1,26.88,0h.69Z"/><path class="cls-1" d="M30.8.06c.18,0,.24.09.24.22v9.6c0,.14-.1.21-.24.21h-.73a.19.19,0,0,1-.21-.21V.27a.2.2,0,0,1,.21-.21Z"/><path class="cls-1" d="M42.94,9.75a.38.38,0,0,1,0,.17c0,.11-.08.17-.23.17H34.27A.23.23,0,0,1,34,9.88a.27.27,0,0,1,0-.13L38.21.22A.27.27,0,0,1,38.5,0h0c.19,0,.21,0,.28.18ZM35.67,8.9h5.68L38.52,2.23Z"/><rect class="cls-1" x="45.03" y="7.53" width="1.93" height="1.93"/><path class="cls-2" d="M24.28,9.13v.72a.24.24,0,0,1-.23.24h-4.6a.19.19,0,0,1-.21-.21V9.16c0-.14.07-.25.22-.25h4.61A.21.21,0,0,1,24.28,9.13Z"/></g></g></svg>