<?xml version="1.0" encoding="utf-8"?>
<!-- Generator: Adobe Illustrator 22.1.0, SVG Export Plug-In . SVG Version: 6.00 Build 0)  -->
<svg version="1.1" id="图层_1" xmlns="http://www.w3.org/2000/svg" xmlns:xlink="http://www.w3.org/1999/xlink" x="0px" y="0px"
	 viewBox="0 0 200 200" style="enable-background:new 0 0 200 200;" xml:space="preserve">
<style type="text/css">
	.st0{fill:#FFFFFF;}
	.st1{fill:#E6EBEF;}
	.st2{fill:#4F3D3B;}
	.st3{fill:#9ADCCF;}
</style>
<path class="st0" d="M39.9,28.5h109.7c1.5,0,2.8,1.2,2.8,2.8v137.4c0,1.5-1.2,2.8-2.8,2.8H39.9c-10.3,0-18.7-8.4-18.7-18.7V47.2
	C21.2,36.9,29.6,28.5,39.9,28.5z"/>
<path class="st1" d="M126.3,120.4c0,0-0.3,0.2-0.3,0.3c-0.3,0.2-0.6,0.4-0.9,0.6c-0.1,0.1-0.2,0.1-0.3,0.2c-0.3,0.1-0.7,0.3-1,0.3
	l-0.1,0l-0.3,0.1l-14.1,2.3c-0.3,0.1-0.6,0.1-0.9,0.1c-1.5,0-3-0.6-4.1-1.7c-1.3-1.3-1.9-3.2-1.6-5.1l2.4-14.4l0-0.1
	c0.1-0.3,0.2-0.7,0.3-1c0.1-0.1,0.1-0.2,0.2-0.3c0.2-0.3,0.3-0.6,0.6-0.9c0.1-0.1,0.1-0.1,0.2-0.2l0.3-0.3l27.6-27.6
	c0-1.5,0.6-2.9,1.7-4l7.6-7.6l0-23.3H44.7c0,0-11.5-0.8-11.5,2.1c0.2,27.9,0,81,0,85.5c0,1.8,16.3,0,16.3,0l93.9,0v-22L126.3,120.4z
	"/>
<path class="st1" d="M53.4,134.8h96c1.7,0,3.1,1.4,3.1,3.1v30.5c0,1.7-1.4,3.1-3.1,3.1c0,0,0,0,0,0h-96c-9.5,0-17.2-7.7-17.2-17.2
	l0,0V152C36.2,142.5,43.9,134.8,53.4,134.8z"/>
<path class="st2" d="M21,153.2c-1.7,0-3.1-1.4-3.1-3.1c0,0,0,0,0,0V45.6c0-11.2,9.1-20.2,20.2-20.2h111.2c3.5,0,6.3,2.8,6.3,6.3
	v36.1c0,1.7-1.5,3.1-3.2,3c-1.7,0-3-1.4-3-3V31.6H38.1c-7.7,0-14,6.3-14,14V150C24.1,151.8,22.7,153.2,21,153.2
	C21,153.2,21,153.2,21,153.2z"/>
<path class="st2" d="M149.1,174.6h-15c-1.7,0-3.2-1.3-3.2-3c0-1.7,1.3-3.2,3-3.2c0.1,0,0.1,0,0.2,0h15l0.2-30.3l-110-0.2
	c-8.4,0-15.1,6.8-15.2,15.1c0,8.5,6.8,15.3,15.2,15.3h71.8c1.7,0,3.1,1.5,3,3.2c0,1.7-1.4,3-3,3H39.3c-11.8,0-21.4-9.6-21.4-21.4
	c0-12,9.6-21.6,21.4-21.6h109.9c3.5,0,6.4,2.9,6.4,6.4v30.2C155.6,171.8,152.7,174.6,149.1,174.6L149.1,174.6z"/>
<g>
	<path class="st2" d="M110.7,56.1H89.2c-1.4,0-2.5,1.1-2.5,2.5s1.1,2.5,2.5,2.5h21.5c1.4,0,2.5-1.1,2.5-2.5S112.1,56.1,110.7,56.1z"
		/>
	<path class="st2" d="M113.2,75.2c0-1.4-1.1-2.5-2.5-2.5H54.4c-1.4,0-2.5,1.1-2.5,2.5c0,1.4,1.1,2.5,2.5,2.5h56.3
		C112.1,77.7,113.2,76.6,113.2,75.2z"/>
	<path class="st2" d="M106.6,91.8c0-1.4-1.1-2.5-2.5-2.5H54.4c-1.4,0-2.5,1.1-2.5,2.5c0,1.4,1.1,2.5,2.5,2.5h49.7
		C105.5,94.2,106.6,93.1,106.6,91.8z"/>
	<path class="st2" d="M54.4,105.9c-1.4,0-2.5,1.1-2.5,2.5s1.1,2.5,2.5,2.5h31.5c1.4,0,2.5-1.1,2.5-2.5s-1.1-2.5-2.5-2.5
		C85.9,105.9,54.4,105.9,54.4,105.9z"/>
</g>
<g>
	<path class="st3" d="M111,105.2l9.7,10.6l26.9-26.9l-9.7-10.6L111,105.2z M169.4,56.9l-6.7-3.5L137,78.3L148.7,90l20.7-20.7
		C172.8,65.9,172.8,60.3,169.4,56.9z"/>
	<path class="st2" d="M174.6,70.3l-1.8-1.8c0.9-1.6,1.4-3.5,1.4-5.4c0-2.9-1.1-5.7-3.2-7.8s-4.8-3.2-7.8-3.2s-5.7,1.1-7.8,3.2
		L134.7,76c-0.9,0.9-0.9,2.3,0,3.1l9.8,9.8l-23.8,23.8l-7.2-7.2l18.7-18.7c0.9-0.9,0.9-2.3,0-3.1c-0.9-0.9-2.2-0.9-3.1,0L108.9,104
		c0,0,0,0.1-0.1,0.1c0,0-0.1,0.1-0.1,0.1c-0.1,0.1-0.2,0.2-0.2,0.3c0,0,0,0.1-0.1,0.1c-0.1,0.2-0.1,0.3-0.2,0.5c0,0,0,0,0,0
		l-2.1,12.4c-0.1,0.7,0.1,1.4,0.6,1.9c0.4,0.4,1,0.6,1.6,0.6c0.1,0,0.2,0,0.4,0l12.4-2.1c0,0,0,0,0,0c0.2,0,0.3-0.1,0.5-0.2
		c0,0,0.1,0,0.1-0.1c0.1-0.1,0.2-0.1,0.3-0.2c0,0,0.1-0.1,0.1-0.1c0,0,0.1,0,0.1-0.1L147.8,92c0.3,0.1,0.6,0.2,0.9,0.2
		c0.6,0,1.1-0.2,1.6-0.6l19.7-19.7l1.6,1.6c0.1,0.1,0.2,0.3,0.2,0.4s0,0.3-0.2,0.4l-15.3,13.7c-1,0.9-1.6,2.2-1.6,3.6
		c0,1.4,0.5,2.7,1.5,3.6c0.4,0.4,1,0.6,1.6,0.6s1.1-0.2,1.6-0.6c0.9-0.9,0.9-2.3,0-3.1c-0.1-0.1-0.2-0.3-0.2-0.4
		c0-0.1,0-0.3,0.2-0.4l15.3-13.7c1-0.9,1.6-2.2,1.6-3.6C176.1,72.6,175.6,71.3,174.6,70.3z M111,115.2l0.9-5.2l2.2,2.2l2.2,2.2
		L111,115.2L111,115.2z M167.9,67.7l-19.1,19.1l-9.3-9.3l19.1-19.1c1.2-1.2,2.9-1.9,4.7-1.9c1.8,0,3.4,0.7,4.7,1.9
		c1.2,1.2,1.9,2.9,1.9,4.7C169.8,64.8,169.1,66.5,167.9,67.7L167.9,67.7z"/>
</g>
</svg>
