<?xml version="1.0" encoding="utf-8"?>
<!-- Generator: Adobe Illustrator 22.1.0, SVG Export Plug-In . SVG Version: 6.00 Build 0)  -->
<svg version="1.1" id="图层_1" xmlns="http://www.w3.org/2000/svg" xmlns:xlink="http://www.w3.org/1999/xlink" x="0px" y="0px"
	 viewBox="0 0 200.2 200" style="enable-background:new 0 0 200.2 200;" xml:space="preserve">
<style type="text/css">
	.st0{fill:#E6EBEF;stroke:#FFFFFF;stroke-width:12;stroke-miterlimit:10;}
	.st1{fill:#9ADCCF;stroke:#FFFFFF;stroke-width:4;stroke-miterlimit:10;}
	.st2{fill:#4F3D3B;stroke:#4F3D3B;stroke-width:3;stroke-miterlimit:10;}
	.st3{fill:#4F3D3B;stroke:#4F3D3B;stroke-miterlimit:10;}
	.st4{fill:#4F3D3B;stroke:#4F3D3B;stroke-width:0.5;stroke-miterlimit:10;}
	.st5{fill:#FFFFFF;}
	.st6{fill:#E6EBEF;}
</style>
<path class="st0" d="M165.7,128c0-6.6-1.4-17-3.6-26.4c-2.6-11.3-5.9-19.8-9.3-23.9c-0.2-0.3-0.3-0.7-0.3-1
	c1-10.5,0.7-22.6-2.5-24.4c-0.9-0.5-4.9-1.5-18.4,7.5c-0.2,0.2-0.5,0.2-0.8,0.2l-59.5-0.4c-0.3,0-0.5-0.1-0.7-0.2
	c-13-8.6-16.9-7.6-17.8-7.1c-2.6,1.5-3.7,10.4-2.7,22.8c0,0.4-0.1,0.7-0.3,1c-8.1,9.6-18,33.3-15.8,50.1"/>
<path class="st1" d="M100.8,57.8H131c0,0,14.5-9.2,18.6-7.8c4.1,1.4,5.8,6.2,3.8,25.2c0,0,6.7,12.6,6.7,15.8c0,0-19.2,27.8-52.9,7.3
	C90,86.3,93.3,65.2,100.8,57.8z"/>
<path class="st2" d="M168.5,128.7h-2.7c0-6.6-1.4-17-3.6-26.4c-2.6-11.3-5.9-19.8-9.3-23.9c-0.2-0.3-0.3-0.7-0.3-1
	c1-10.5,0.7-22.6-2.5-24.4c-0.9-0.5-4.9-1.5-18.4,7.5c-0.2,0.2-0.5,0.2-0.8,0.2l-59.5-0.4c-0.3,0-0.5-0.1-0.7-0.2
	c-13-8.6-16.9-7.6-17.8-7.1c-2.6,1.5-3.7,10.4-2.7,22.8c0,0.4-0.1,0.7-0.3,1c-8.1,9.6-18,33.3-15.8,50.1l-2.7,0.4
	c-1.1-8,0.4-18.2,4.1-28.9c3.1-9,7.6-17.5,11.9-22.8c-0.2-3-0.5-8.2-0.2-13c0.4-6.6,1.8-10.5,4.3-11.9c3.4-2,10.3,0.4,20.4,6.9
	l58.6,0.4c10.4-6.9,17.5-9.3,21-7.3c2.7,1.5,4.1,6,4.4,13.6c0.2,5.2-0.2,10.4-0.4,12.9C163.5,87.6,168.5,116.3,168.5,128.7
	L168.5,128.7z"/>
<path class="st2" d="M180.9,130.1H13.9c-0.9,0-1.6-0.7-1.6-1.6c0-0.9,0.7-1.6,1.6-1.6h166.9c0.9,0,1.6,0.7,1.6,1.6
	C182.5,129.4,181.8,130.1,180.9,130.1z"/>
<path class="st3" d="M63.7,93.6c0,2.6,1.4,4.7,3.2,4.7c1.8,0,3.2-2.1,3.2-4.7c0,0,0,0,0,0c0-2.6-1.4-4.7-3.2-4.7
	C65.2,88.8,63.7,91,63.7,93.6C63.7,93.6,63.7,93.6,63.7,93.6z"/>
<path class="st3" d="M123.6,93.6c0,2.6,1.5,4.7,3.2,4.7c1.8,0,3.2-2.1,3.2-4.7s-1.5-4.7-3.2-4.7C125,88.8,123.6,91,123.6,93.6z"/>
<g>
	<path class="st4" d="M92.5,113.1c-1.3,0-2.6-0.6-3.4-1.6c-0.3-0.4-0.2-0.9,0.1-1.3c0.4-0.3,0.9-0.2,1.3,0.1c0.5,0.6,1.2,1,2,1
		c1.4,0,2.6-1.2,2.6-2.6c0-0.5,0.4-0.9,0.9-0.9c0.5,0,0.9,0.4,0.9,0.9C96.8,111.1,94.9,113.1,92.5,113.1L92.5,113.1z"/>
	<path class="st4" d="M99.5,113.1c-2.4,0-4.4-2-4.4-4.4c0-0.5,0.4-0.9,0.9-0.9c0.5,0,0.9,0.4,0.9,0.9c0,1.4,1.2,2.6,2.6,2.6
		c0.8,0,1.5-0.3,2-1c0.3-0.4,0.9-0.4,1.3-0.1s0.4,0.9,0.1,1.3C102,112.5,100.8,113.1,99.5,113.1z"/>
	<path class="st4" d="M92.5,103h7.3c1.2,0,1.8,1.4,1,2.3l-3.7,3.6c-0.5,0.6-1.5,0.6-2.1,0l-3.5-3.6C90.7,104.4,91.3,103,92.5,103z"
		/>
</g>
<path class="st5" d="M55.9,128.7c0.3,6.3-5.8,8.7-13.9,8.7s-15.8-1.7-15.4-8.7c0.4-6.7,7.9-12.1,14.6-12.1
	C48.7,116.6,55.6,122,55.9,128.7z"/>
<path class="st6" d="M57.5,132c0.2,5.1-4.7,7-11.3,7s-12.8-1.4-12.5-7c0.3-5.4,6.4-9.8,11.9-9.8C51.7,122.2,57.3,126.6,57.5,132z"/>
<path class="st2" d="M42.7,138.8c-7.3,0-12.1-1.3-14.7-4.1c-1.5-1.6-2.2-3.7-2.1-6.1c0.2-3.6,2.2-7,5.5-9.6c3.1-2.5,7-3.9,10.6-3.9
	c8.4,0,15.7,6.2,16.1,13.5c0.1,2.5-0.6,4.6-2.2,6.2C53.3,137.5,48.9,138.8,42.7,138.8L42.7,138.8z M41.9,118
	c-7.1,0-12.9,5.8-13.2,10.8c-0.1,1.6,0.3,2.9,1.3,4c2,2.1,6.2,3.2,12.6,3.2c5.3,0,9.2-1,11.1-3c1-1.1,1.5-2.4,1.4-4.1
	C54.9,123,48.8,118,41.9,118z"/>
<path class="st5" d="M163.8,128.7c0.3,6.3-5.8,8.7-13.9,8.7c-8.1,0-15.8-1.7-15.4-8.7c0.4-6.7,7.9-12.1,14.6-12.1
	C156.7,116.6,163.5,122,163.8,128.7z"/>
<path class="st6" d="M165.7,131.6c0.2,5.4-5,7.4-12,7.4s-13.5-1.5-13.2-7.4c0.3-5.8,6.8-10.4,12.6-10.4
	C159.6,121.2,165.5,125.9,165.7,131.6z"/>
<path class="st2" d="M149.9,138.8c-7.3,0-12.1-1.3-14.7-4.1c-1.5-1.6-2.2-3.7-2.1-6.1c0.2-3.6,2.2-7,5.5-9.6c3.1-2.5,7-3.9,10.6-3.9
	c8.4,0,15.7,6.2,16.1,13.5c0.1,2.5-0.6,4.6-2.2,6.2C160.5,137.5,156.1,138.8,149.9,138.8L149.9,138.8z M149.2,118
	c-7.1,0-12.9,5.8-13.2,10.8c-0.1,1.6,0.3,2.9,1.3,4c2,2.1,6.2,3.2,12.6,3.2c5.3,0,9.2-1,11.1-3c1-1.1,1.5-2.4,1.4-4.1
	C162.1,123,156.1,118,149.2,118z"/>
</svg>
