<?xml version="1.0" encoding="utf-8"?>
<!-- Generator: Adobe Illustrator 22.1.0, SVG Export Plug-In . SVG Version: 6.00 Build 0)  -->
<svg version="1.1" id="图层_1" xmlns="http://www.w3.org/2000/svg" xmlns:xlink="http://www.w3.org/1999/xlink" x="0px" y="0px"
	 viewBox="0 0 188 200" style="enable-background:new 0 0 188 200;" xml:space="preserve">
<style type="text/css">
	.st0{fill:#9ADCCF;}
	.st1{fill:#309AA5;}
	.st2{fill:#FFF370;}
	.st3{fill:#E6EBEF;stroke:#FFFFFF;stroke-width:8;stroke-miterlimit:10;}
	.st4{fill:#4F3D3B;}
</style>
<path class="st0" d="M120.5,168.8H67.4c-5.5,0-10.4-3.7-11.9-8.9l-10.3-35.7l-0.5-1.9c-0.1-0.3,0-0.4,0.1-0.6
	c0.1-0.1,0.3-0.3,0.5-0.3h15.9l7.1,27.9c0.4,1.5,1.7,2.5,3.2,2.5c0.3,0,0.5,0,0.8-0.1c1.8-0.4,2.8-2.2,2.4-4L68,121.5h23.4v37.3
	c0,1.8,1.5,3.3,3.3,3.3c1.8,0,3.3-1.5,3.3-3.3v-37.3h24.3l-5.4,24.6c-0.4,1.8,0.7,3.5,2.5,3.9c0.2,0.1,0.5,0.1,0.7,0.1
	c1.5,0,2.9-1,3.2-2.6l5.8-26.1h13.7c0.3,0,0.4,0.1,0.5,0.3c0.1,0.1,0.2,0.3,0.1,0.6l-10.9,37.6C130.9,165.1,126,168.8,120.5,168.8
	L120.5,168.8z"/>
<path class="st1" d="M63.9,38.1c-0.2-1.6,0.1-3,0.5-3.3c0.2-0.2,0.8-0.2,1.7-0.1c3.4,0.4,6.1,3.5,7.7,5.7c0.3,0.4,0.6,0.8,0.8,1.1
	c1.5,2.2,2.7,4.6,3.4,6.5c-4.5-1.3-7.6-3-9.7-4.5C64.6,40.7,63.9,38.1,63.9,38.1z"/>
<path class="st2" d="M145.3,47.1H145c-2.5,0.1-4.7,1.2-6.3,3c-1.4,1.5-2.2,3.6-2.2,5.8c0,1.6,0.4,3.1,1.2,4.4
	c1.5,2.6,4.3,4.3,7.6,4.3c1.6,0,3-0.4,4.3-1.1c2.7-1.5,4.5-4.4,4.5-7.7C154.1,51.1,150.2,47.1,145.3,47.1z"/>
<path class="st3" d="M40.6,80.7c1.5-2.3,3.5-3.1,5-3.8c1.1-0.5,4.1-1.7,3.4-4.7v-0.3c0-0.2,0-0.4,0-0.5c0-3.6,0.9-7.1,2.7-10.2
	c3.6-6.4,10.3-10.4,17.7-10.6c3.2,1.9,7.5,3.7,13.5,4.9c0.3,0.1,0.5,0.1,0.8,0.1c0.7,0,1.4-0.2,2-0.6c0.9-0.6,1.5-1.5,1.8-2.6
	c0.6-2.7-1.4-7.9-3.8-12c1.3-2.9,3.1-5.5,5.4-7.8c5.8-5.9,13.8-8.7,22.1-7.8c10,1.1,18.6,8.1,22.1,17.3c-5,3.1-13.2,13.9-11.9,38.6
	c1.3,25.1,22.5,34.3,21.3,34.3H45.4c-1,0-2,0.2-2.9,0.6c-5.4-3.8-9-10-9-17.1c0-1.8-3.9-1.6-3.3-3.3C35,83.1,40.6,80.7,40.6,80.7z"
	/>
<path class="st4" d="M164.3,92.6c0-10.5-4.8-20-12.6-26.2c3.1-2.8,5.1-6.9,5.1-11.4c0-8.5-6.9-15.4-15.4-15.4c-0.7,0-1.3,0-2,0.1
	c-4.3-11.6-14.8-20.2-27.6-21.6c-10.3-1.1-20.3,2.4-27.5,9.7c-2,2-3.7,4.2-5.1,6.6c-2.1-2.3-5.2-4.5-9.2-4.9
	c-1.1-0.1-3.9-0.4-6.3,1.5c-3.3,2.6-3.1,7.1-2.8,9c0.1,0.4,0.4,2.3,2.1,4.7c-7.2,1.8-13.4,6.5-17.1,13.1c-2.2,4-3.5,8.5-3.5,13.2
	c-1.9,0.8-5,2.4-7.4,5.9c-1,1.5-0.6,3.6,0.9,4.6c1.5,1,3.6,0.6,4.6-0.9c1.5-2.3,3.5-3.1,5-3.8c1.1-0.5,4.1-1.7,3.4-4.7v-0.3
	c0-0.2,0-0.4,0-0.5c0-3.6,0.9-7.1,2.7-10.2c3.6-6.4,10.3-10.4,17.7-10.6c3.2,1.9,7.5,3.7,13.5,4.9c0.3,0.1,0.5,0.1,0.8,0.1
	c0.7,0,1.4-0.2,2-0.6c0.9-0.6,1.5-1.5,1.8-2.6c0.6-2.7-1.4-7.9-3.8-12c1.3-2.9,3.1-5.5,5.4-7.8c5.8-5.9,13.8-8.7,22.1-7.8
	c10,1.1,18.6,8.1,22.1,17.3c-4.3,2.7-7.1,7.5-7.1,13c0,8.5,6.9,15.4,15.4,15.4c1.3,0,2.5-0.2,3.7-0.5c7.7,4.8,12.5,13.3,12.5,22.7
	c0,5.1-1.1,17.7-11.2,22.7c-0.2,0.1-0.4,0.2-0.5,0.3c-1-0.5-2.1-0.8-3.3-0.8H45.3c-1,0-2,0.2-2.9,0.6c-5.4-3.8-9-10-9-17.1
	c0-1.8-1.5-3.3-3.3-3.3c-1.8,0-3.3,1.5-3.3,3.3c0,9.1,4.5,17.2,11.4,22.2c-0.3,1.2-0.2,2.4,0.1,3.6l10.9,37.6
	c2.3,8,9.8,13.7,18.2,13.7h53.1c8.4,0,15.9-5.6,18.2-13.7l10.9-37.6c0.3-1,0.4-2.1,0.2-3C162.9,114.2,164.3,98.9,164.3,92.6
	L164.3,92.6z M67.5,39.2c-0.2-1.4,0.1-2.7,0.4-2.9c0.2-0.2,0.7-0.2,1.5-0.1c3,0.3,5.4,3.1,6.9,5.1c0.3,0.4,0.5,0.7,0.7,1
	c1.4,2,2.4,4.1,3,5.8c-4-1.2-6.7-2.6-8.6-4C68.1,41.5,67.5,39.2,67.5,39.2z M133.9,59.5c-0.8-1.3-1.2-2.8-1.2-4.4
	c0-2.2,0.8-4.3,2.2-5.8c1.5-1.8,3.8-2.9,6.3-3h0.3c4.8,0,8.8,3.9,8.8,8.8c0,3.3-1.8,6.2-4.5,7.7c-1.3,0.7-2.7,1.1-4.3,1.1
	C138.3,63.8,135.5,62.1,133.9,59.5L133.9,59.5z M120.5,168.8H67.4c-5.5,0-10.4-3.7-11.9-8.9l-10.3-35.7l-0.5-1.9
	c-0.1-0.3,0-0.4,0.1-0.6c0.1-0.1,0.3-0.3,0.5-0.3h15.9l7.1,27.9c0.4,1.5,1.7,2.5,3.2,2.5c0.3,0,0.5,0,0.8-0.1c1.8-0.4,2.8-2.2,2.4-4
	L68,121.5h23.4v37.3c0,1.8,1.5,3.3,3.3,3.3c1.8,0,3.3-1.5,3.3-3.3v-37.3h24.3l-5.4,24.6c-0.4,1.8,0.7,3.5,2.5,3.9
	c0.2,0.1,0.5,0.1,0.7,0.1c1.5,0,2.9-1,3.2-2.6l5.8-26.1h13.7c0.3,0,0.4,0.1,0.5,0.3c0.1,0.1,0.2,0.3,0.1,0.6l-10.9,37.6
	C130.9,165.1,126,168.8,120.5,168.8L120.5,168.8z"/>
<path class="st4" d="M72.9,74.6c1.8-0.4,2.9-2.1,2.6-3.9c-0.4-1.8-2.1-2.9-3.9-2.6c-5.1,1-9.7,4-12.7,8.2c-3,4.2-4.2,9.6-3.5,14.7
	c0.2,1.6,1.6,2.8,3.2,2.8c0.2,0,0.3,0,0.5,0c1.8-0.3,3-1.9,2.8-3.7c-0.5-3.5,0.4-7.1,2.4-9.9C66.3,77.4,69.4,75.3,72.9,74.6z"/>
</svg>
