<?xml version="1.0" encoding="utf-8"?>
<!-- Generator: Adobe Illustrator 22.1.0, SVG Export Plug-In . SVG Version: 6.00 Build 0)  -->
<svg version="1.1" id="图层_1" xmlns="http://www.w3.org/2000/svg" xmlns:xlink="http://www.w3.org/1999/xlink" x="0px" y="0px"
	 viewBox="0 0 200 200" style="enable-background:new 0 0 200 200;" xml:space="preserve">
<style type="text/css">
	.st0{fill:#9ADCCF;}
	.st1{fill:#309AA5;}
	.st2{fill:#FFFFFF;}
	.st3{fill:#4F3D3B;}
	.st4{fill:#E6EBEF;}
</style>
<path class="st0" d="M31.6,154.2l15.2-25.6l6.6,0l4.4,8.1h22.9l10.5,17.5H31.6z"/>
<path class="st1" d="M62,114.3l4.3,8.1h6.1l-11-19.4l-6.4,11.3L62,114.3z"/>
<path class="st0" d="M31.6,154.2l15.2-25.6l6.6,0l4.4,8.1h22.9l10.5,17.5H31.6z"/>
<path class="st2" d="M167.2,86.3h-0.4C164,79.1,157,74,148.8,74c-10.8,0-19.5,8.8-19.5,19.5S138,113,148.8,113h18.5
	c7.4,0,13.4-6,13.4-13.4C180.6,92.3,174.6,86.3,167.2,86.3z"/>
<path class="st3" d="M163.8,123.9c-0.8-1.5-2.7-2.1-4.2-1.2c-1.5,0.8-2.1,2.7-1.2,4.2l17.1,31.4h-70.2l-32.5-56.4l10.1-18.7l23,0.2
	L112,95c0.5,1,1.6,1.6,2.7,1.6h11.6c1.5,11,11,19.5,22.4,19.5h18.5c9.1,0,16.4-7.4,16.4-16.4c0-8.5-6.5-15.5-14.8-16.4
	c-3.8-7.6-11.5-12.4-20.2-12.4c-11.4,0-20.9,8.5-22.4,19.5h-9.7l-6.2-11.5c-0.5-1-1.6-1.6-2.7-1.6l-21.6-0.2l19.8-36.9
	c0.8-1.5,2.2-1.6,2.7-1.6c0.5,0,1.9,0.2,2.7,1.6l15.1,27.9c0.8,1.5,2.7,2.1,4.2,1.2c1.5-0.8,2.1-2.7,1.2-4.2l-15.1-27.9
	c-1.6-3-4.7-4.8-8.1-4.8h0c-3.4,0-6.5,1.9-8.1,4.9L69.1,95.7c-1.7-2.7-4.6-4.2-7.8-4.2c-3.3,0-6.3,1.7-8,4.6l-36.8,63.7
	c-0.5,1-0.5,2.1,0,3.1c0.5,1,1.6,1.5,2.7,1.5h20.6c1.7,0,3.1-1.4,3.1-3.1s-1.4-3.1-3.1-3.1H24.6l19.6-34c0.2,0.1,0.4,0.1,0.7,0.1
	l10.9,0.1l3.5,6.5c0.5,1,1.6,1.6,2.7,1.6H83c0.1,0,0.2,0,0.4,0l14.9,25.7H55.9c-1.7,0-3.1,1.4-3.1,3.1c0,1.7,1.4,3.1,3.1,3.1h124.7
	c1.1,0,2.1-0.6,2.7-1.5c0.6-0.9,0.6-2.1,0.1-3L163.8,123.9L163.8,123.9z M148.7,77.1c6.8,0,12.8,4.1,15.3,10.4c0.5,1.2,1.6,2,2.9,2
	h0.4c5.7,0,10.3,4.6,10.3,10.3s-4.6,10.3-10.3,10.3h-18.5c-9.1,0-16.4-7.4-16.4-16.4S139.7,77.1,148.7,77.1z M63.8,126.4l-3.5-6.5
	c-0.5-1-1.6-1.6-2.7-1.6l-10-0.1l11-19.1c0.8-1.4,2.1-1.5,2.7-1.5c0.5,0,1.9,0.2,2.7,1.5l15.7,27.2L63.8,126.4L63.8,126.4z"/>
<path class="st1" d="M127,78l-18.3-34.1L92.9,73.1l19.1,0.1l7.1,13.1h3.9C123.8,83.3,125.2,80.5,127,78L127,78z"/>
<path class="st0" d="M148.7,120.3c-12.2,0-22.6-8.3-25.7-19.5h-12.5l-7.1-13.1l-18.2-0.1L77.4,102l30.3,52.2h60.9l-18.6-33.9H148.7z
	"/>
<path class="st4" d="M151.8,86.3c0-1.6,0.2-3.1,0.5-4.6c-1.1-0.4-2.3-0.5-3.6-0.5c-6.8,0-12.3,5.5-12.3,12.3s5.5,12.3,12.3,12.3
	h15.5C156.9,102.4,151.8,95,151.8,86.3z"/>
</svg>
